<svg width="42" height="41" viewBox="0 0 42 41" fill="none" xmlns="http://www.w3.org/2000/svg">
<path d="M21.3094 16.1813C25.7707 16.1813 29.4001 12.5519 29.4001 8.09067C29.4001 3.6294 25.7707 0 21.3094 0C16.8481 0 13.2188 3.6294 13.2188 8.09067C13.2188 12.5519 16.8481 16.1813 21.3094 16.1813Z" fill="#37A2DD"/>
<path d="M32.1661 20.102C32.1626 20.1009 32.156 20.0984 32.1526 20.0976C31.0991 19.8402 27.8732 19.389 27.8732 19.389C27.5091 19.2769 27.1199 19.4697 26.9889 19.8291L22.1332 33.1518C21.8531 33.9204 20.7661 33.9204 20.4861 33.1518L15.6304 19.8291C15.5246 19.5389 15.2508 19.3569 14.9573 19.3569C14.8877 19.3569 11.5708 19.822 10.4666 20.0966C7.44915 20.8469 5.5459 23.8141 5.5459 26.9063V37.9918C5.5459 39.653 6.89269 40.9998 8.55395 40.9998H34.0626C35.7238 40.9998 37.0706 39.653 37.0706 37.9918V26.8695C37.0705 23.7906 35.0927 21.0582 32.1661 20.102Z" fill="#37A2DD"/>
<path d="M23.1406 19.1352C22.9468 18.924 22.6635 18.8179 22.377 18.8179H20.2393C19.9527 18.8179 19.6693 18.9242 19.4756 19.1352C19.1756 19.4621 19.132 19.9344 19.345 20.3034L20.4878 22.0261L19.9528 26.5388L21.0063 29.3412C21.109 29.6231 21.5075 29.6231 21.6102 29.3412L22.6637 26.5388L22.1287 22.0261L23.2715 20.3034C23.4842 19.9344 23.4406 19.4621 23.1406 19.1352Z" fill="#37A2DD"/>
</svg>
