<svg width="41" height="40" viewBox="0 0 41 40" fill="none" xmlns="http://www.w3.org/2000/svg">
<path d="M22.6574 9.87053C23.0406 9.87053 23.3512 9.56626 23.3512 9.19091V3.07439C23.3512 1.5833 22.0787 0.355957 20.5761 0.355957C19.0435 0.355957 17.801 1.57303 17.801 3.07439V9.19091C17.801 9.56626 18.1116 9.87053 18.4948 9.87053H22.6574Z" fill="#37A2DD"/>
<path d="M9.4759 17.403C8.60012 17.403 7.89014 16.693 7.89014 15.8172C7.89014 14.9414 8.60012 14.2314 9.4759 14.2314H31.6766C32.5523 14.2314 33.2623 14.9414 33.2623 15.8172C33.2623 16.693 32.5523 17.403 31.6766 17.403H9.4759Z" fill="#37A2DD"/>
<path d="M24.9371 9.19065C24.9371 10.4725 23.8855 11.456 22.6575 11.456H18.4949C17.2669 11.456 16.2154 10.4725 16.2154 9.19065V3.07413C16.2154 2.86203 16.2307 2.6539 16.2604 2.45068C12.4983 4.11018 9.87231 7.87288 9.87231 12.2489V12.6453H31.2801V12.2489C31.2801 7.87288 28.6541 4.11018 24.892 2.45068C24.9217 2.6539 24.9371 2.86203 24.9371 3.07413V9.19065Z" fill="#37A2DD"/>
<path d="M11.458 20.5745V18.9888H29.6943V20.5745C29.6943 23.6049 28.2159 26.29 25.9412 27.948C24.4358 29.0453 22.5816 29.6927 20.5761 29.6927C18.5707 29.6927 16.7165 29.0452 15.2111 27.948C12.9363 26.29 11.458 23.6049 11.458 20.5745Z" fill="#37A2DD"/>
<path d="M27.3067 28.8979C28.1396 28.2235 28.8693 27.4267 29.4684 26.5347C30.226 26.5715 30.9643 26.6816 31.6765 26.8581V39.9999H9.47583V26.8581C10.188 26.6816 10.9263 26.5715 11.684 26.5347C12.283 27.4267 13.0127 28.2235 13.8457 28.8979C14.8248 31.6704 17.4685 33.6569 20.5762 33.6569C23.6838 33.6569 26.3275 31.6704 27.3067 28.8979Z" fill="#37A2DD"/>
<path d="M20.5762 31.2781C19.2501 31.2781 17.9803 31.037 16.8083 30.5962C17.798 31.5116 19.1217 32.071 20.5762 32.071C22.0306 32.071 23.3543 31.5116 24.344 30.5962C23.172 31.037 21.9023 31.2781 20.5762 31.2781Z" fill="#37A2DD"/>
<path d="M39.7563 40.0001H33.2622V27.377C33.8136 27.6031 34.3435 27.871 34.848 28.1765C38.1749 30.191 40.3981 33.8448 40.3981 38.0179V39.3582C40.3981 39.7059 40.104 40.0001 39.7563 40.0001Z" fill="#37A2DD"/>
<path d="M7.89008 40H1.39599C1.04153 40 0.75415 39.7126 0.75415 39.3582V38.0178C0.75415 33.862 2.95915 30.2212 6.26305 28.2016L6.30432 28.1765C6.80883 27.871 7.33871 27.6032 7.89008 27.377V40Z" fill="#37A2DD"/>
</svg>
