<svg width="36" height="39" viewBox="0 0 36 39" fill="none" xmlns="http://www.w3.org/2000/svg">
<path d="M18.2812 19.7132C23.7248 19.7132 28.1378 15.3002 28.1378 9.8566C28.1378 4.41295 23.7248 0 18.2812 0C12.8375 0 8.42456 4.41295 8.42456 9.8566C8.42456 15.3002 12.8375 19.7132 18.2812 19.7132Z" fill="#37A2DD"/>
<path fill-rule="evenodd" clip-rule="evenodd" d="M19.6252 30.9139V22.8495C19.6252 22.1075 19.023 21.5054 18.2811 21.5054C17.5392 21.5054 16.937 22.1075 16.937 22.8495V30.9139C16.937 31.6559 17.5392 32.258 18.2811 32.258C19.023 32.258 19.6252 31.6559 19.6252 30.9139Z" fill="#37A2DD"/>
<path fill-rule="evenodd" clip-rule="evenodd" d="M35.7542 31.8098C35.7542 25.5177 31.5697 20.2041 25.8331 18.4962C25.2292 18.317 24.5804 18.5804 24.274 19.1324L18.2812 29.9352L12.2884 19.1324C11.9819 18.5804 11.3332 18.317 10.7292 18.4962C4.99268 20.2041 0.808105 25.5177 0.808105 31.8098V35.394C0.808105 36.2255 1.13785 37.023 1.72746 37.6108C2.31527 38.2004 3.11276 38.5302 3.9443 38.5302H32.618C33.4496 38.5302 34.2471 38.2004 34.8349 37.6108C35.4245 37.023 35.7542 36.2255 35.7542 35.394V31.8098ZM25.4496 31.3617H29.0338C29.7757 31.3617 30.3779 30.7596 30.3779 30.0177C30.3779 29.2757 29.7757 28.6736 29.0338 28.6736H25.4496C24.7077 28.6736 24.1055 29.2757 24.1055 30.0177C24.1055 30.7596 24.7077 31.3617 25.4496 31.3617Z" fill="#37A2DD"/>
</svg>
