<svg width="38" height="40" viewBox="0 0 38 40" fill="none" xmlns="http://www.w3.org/2000/svg">
<path d="M19.002 20.1777C24.3177 20.1777 28.627 15.8685 28.627 10.5527C28.627 5.23699 24.3177 0.927734 19.002 0.927734C13.6862 0.927734 9.37695 5.23699 9.37695 10.5527C9.37695 15.8685 13.6862 20.1777 19.002 20.1777Z" fill="#37A2DD"/>
<path d="M16.4912 28.0964L19.002 30.6085L21.5141 28.0964L19.4461 22.9277H18.5578L16.4912 28.0964Z" fill="#37A2DD"/>
<path d="M37.9371 34.5782C37.3648 31.4466 36.0232 28.5062 34.0327 26.0216C32.0423 23.537 29.4656 21.5861 26.5342 20.3442C25.2539 21.3323 23.7922 22.0596 22.2319 22.4851L24.0675 27.0749C24.2675 27.5745 24.3165 28.1218 24.2085 28.649C24.1005 29.1762 23.8401 29.6601 23.4597 30.0407L20.9462 32.5529C20.4305 33.0684 19.7312 33.358 19.002 33.358C18.2728 33.358 17.5734 33.0684 17.0577 32.5529L14.5456 30.0407C14.1653 29.6603 13.9048 29.1767 13.7966 28.6498C13.6883 28.1229 13.737 27.5758 13.9365 27.0762L15.7721 22.4851C14.2118 22.0596 12.7501 21.3323 11.4697 20.3442C8.5384 21.5861 5.96166 23.537 3.97125 26.0216C1.98084 28.5062 0.63916 31.4466 0.0668722 34.5782C-0.0413545 35.1687 -0.0179859 35.7758 0.135312 36.3562C0.288611 36.9366 0.568063 37.476 0.953747 37.936C1.34196 38.4031 1.82832 38.7789 2.37824 39.0368C2.92816 39.2946 3.52813 39.4282 4.1355 39.4279H33.8685C34.4759 39.4282 35.0758 39.2946 35.6258 39.0368C36.1757 38.7789 36.662 38.4031 37.0502 37.936C37.4359 37.476 37.7154 36.9366 37.8687 36.3562C38.022 35.7758 38.0453 35.1687 37.9371 34.5782Z" fill="#37A2DD"/>
</svg>
