<svg width="26" height="26" viewBox="0 0 26 26" fill="none" xmlns="http://www.w3.org/2000/svg">
<circle cx="13" cy="13" r="12.75" stroke="#1D78AB" stroke-width="0.5"/>
<path d="M13.0739 14.6986C13.9706 14.6986 14.6976 13.9716 14.6976 13.0749C14.6976 12.1781 13.9706 11.4512 13.0739 11.4512C12.1772 11.4512 11.4502 12.1781 11.4502 13.0749C11.4502 13.9716 12.1772 14.6986 13.0739 14.6986Z" fill="#1D78AB"/>
<path d="M15.3067 8H10.8415C10.0879 8 9.36513 8.29937 8.83225 8.83225C8.29937 9.36513 8 10.0879 8 10.8415V15.3067C8 16.0603 8.29937 16.783 8.83225 17.3159C9.36513 17.8488 10.0879 18.1481 10.8415 18.1481H15.3067C16.0603 18.1481 16.783 17.8488 17.3159 17.3159C17.8488 16.783 18.1481 16.0603 18.1481 15.3067V10.8415C18.1481 10.0879 17.8488 9.36513 17.3159 8.83225C16.783 8.29937 16.0603 8 15.3067 8ZM13.0741 15.5096C12.5924 15.5096 12.1215 15.3668 11.7209 15.0992C11.3204 14.8315 11.0083 14.4511 10.8239 14.0061C10.6396 13.5611 10.5913 13.0714 10.6853 12.5989C10.7793 12.1265 11.0113 11.6925 11.3519 11.3519C11.6925 11.0113 12.1265 10.7793 12.5989 10.6853C13.0714 10.5913 13.5611 10.6396 14.0061 10.8239C14.4511 11.0083 14.8315 11.3204 15.0992 11.7209C15.3668 12.1215 15.5096 12.5924 15.5096 13.0741C15.5096 13.72 15.253 14.3395 14.7963 14.7963C14.3395 15.253 13.72 15.5096 13.0741 15.5096ZM15.7126 11.0444C15.5922 11.0444 15.4744 11.0087 15.3743 10.9418C15.2742 10.8749 15.1961 10.7798 15.15 10.6686C15.104 10.5573 15.0919 10.4349 15.1154 10.3168C15.1389 10.1987 15.1969 10.0902 15.282 10.005C15.3672 9.91985 15.4757 9.86186 15.5938 9.83836C15.7119 9.81487 15.8343 9.82693 15.9456 9.87301C16.0569 9.9191 16.1519 9.99714 16.2189 10.0973C16.2858 10.1974 16.3215 10.3151 16.3215 10.4356C16.3215 10.597 16.2573 10.7519 16.1431 10.8661C16.0289 10.9803 15.8741 11.0444 15.7126 11.0444Z" fill="#1D78AB"/>
</svg>
