<svg width="26" height="26" viewBox="0 0 26 26" fill="none" xmlns="http://www.w3.org/2000/svg">
<circle cx="13" cy="13" r="12.75" stroke="#1D78AB" stroke-width="0.5"/>
<path d="M10.27 18.42H8.03729V10.9775H10.27V18.42ZM18.4567 18.42H16.224V14.4442C16.224 13.4082 15.8549 12.8925 15.1233 12.8925C14.5435 12.8925 14.1758 13.1813 13.9913 13.7595C13.9913 14.6988 13.9913 18.42 13.9913 18.42H11.7585C11.7585 18.42 11.7883 11.7218 11.7585 10.9775H13.5209L13.6571 12.466H13.7032C14.161 11.7218 14.8925 11.2172 15.8958 11.2172C16.6586 11.2172 17.2756 11.4293 17.7467 11.9622C18.2208 12.4958 18.4567 13.2118 18.4567 14.2172V18.42Z" fill="#1D78AB"/>
<path d="M9.15358 10.2327C9.79069 10.2327 10.3072 9.73292 10.3072 9.11637C10.3072 8.49982 9.79069 8 9.15358 8C8.51648 8 8 8.49982 8 9.11637C8 9.73292 8.51648 10.2327 9.15358 10.2327Z" fill="#1D78AB"/>
</svg>
