<svg width="26" height="26" viewBox="0 0 26 26" fill="none" xmlns="http://www.w3.org/2000/svg">
<circle cx="13" cy="13" r="12.75" stroke="#1D78AB" stroke-width="0.5"/>
<path d="M18.467 9.64619C19.0501 9.29318 19.4361 8.81135 19.6252 8.19857C19.058 8.49535 18.493 8.6989 17.9287 8.81135C17.4214 8.2733 16.7792 8 16.0092 8C15.2566 8 14.6209 8.26049 14.102 8.76722C13.5861 9.27752 13.3256 9.89742 13.3256 10.6212C13.3256 10.8411 13.3537 11.0376 13.41 11.2041C11.1904 11.1294 9.35315 10.2212 7.90561 8.47329C7.66027 8.90103 7.5376 9.33659 7.5376 9.78711C7.5376 10.713 7.93376 11.4468 8.72464 11.9856C8.27363 11.9479 7.87603 11.8354 7.5376 11.6511C7.5376 12.3123 7.73459 12.8645 8.12931 13.3506C8.52547 13.8318 9.0342 14.1385 9.65551 14.2695C9.43037 14.3264 9.19296 14.3534 8.94905 14.3534C8.72391 14.3534 8.56444 14.3349 8.46991 14.2944C8.63588 14.8331 8.94905 15.2701 9.4015 15.6046C9.8525 15.9406 10.3713 16.1178 10.9544 16.1334C9.99322 16.8772 8.89421 17.2451 7.65089 17.2451C7.34637 17.2451 7.13061 17.2408 7 17.2181C8.22456 18.0024 9.58768 18.3917 11.0958 18.3917C12.6393 18.3917 14.0032 18.0059 15.1902 17.2344C16.3773 16.4672 17.2533 15.5206 17.8161 14.4061C18.3819 13.293 18.6619 12.1343 18.6619 10.9244V10.5913C19.2088 10.1857 19.6512 9.72875 19.9896 9.22414C19.4989 9.43267 18.9916 9.5743 18.467 9.64619Z" fill="#1D78AB"/>
</svg>
